<svg width="42" height="56" viewBox="0 0 42 56" fill="none" xmlns="http://www.w3.org/2000/svg">
<path fill-rule="evenodd" clip-rule="evenodd" d="M21 0C32.5976 0 42 9.17278 42 20.4848C42 31.7968 21 56 21 56C21 56 0 31.7968 0 20.4848C0 9.17278 9.4024 0 21 0ZM21.0112 11.6032C22.8719 11.6032 24.6909 12.1549 26.238 13.1887C27.7852 14.2225 28.991 15.6918 29.703 17.4109C30.4151 19.13 30.6014 21.0216 30.2384 22.8466C29.8754 24.6716 28.9794 26.3479 27.6637 27.6637C26.3479 28.9794 24.6716 29.8754 22.8466 30.2384C21.0216 30.6014 19.13 30.4151 17.4109 29.703C15.6918 28.991 14.2225 27.7852 13.1887 26.238C12.1549 24.6909 11.6032 22.8719 11.6032 21.0112C11.6032 18.5161 12.5944 16.1231 14.3588 14.3588C16.1231 12.5944 18.5161 11.6032 21.0112 11.6032Z" fill="#C69C6D"/>
</svg>
