<svg width="121" height="80" viewBox="0 0 121 80" fill="none" xmlns="http://www.w3.org/2000/svg">
<g opacity="0.3">
<path d="M28.0867 0C12.5958 0 0 12.9556 0 28.8889C0 43.0444 9.87356 54.9778 23.2688 57.3556C24.0033 67.5333 15.8366 76.1111 15.7502 76.2C15.0588 76.9333 14.9076 78.0222 15.4045 78.8889C15.815 79.6 16.528 80 17.2841 80C17.457 80 17.6514 79.9778 17.8459 79.9111C57.0593 68.7111 56.2383 30.9111 56.1734 28.8444C56.1302 12.9333 43.556 0 28.0867 0Z" fill="#DBBF8D"/>
<path d="M120.989 28.8444C120.946 12.9333 108.372 0 92.9022 0C77.4113 0 64.8155 12.9556 64.8155 28.8889C64.8155 43.0444 74.6891 54.9778 88.0843 57.3556C88.8189 67.5333 80.6521 76.1111 80.5657 76.2C79.8743 76.9333 79.7231 78.0222 80.22 78.8889C80.6305 79.6 81.3435 80 82.0996 80C82.2725 80 82.4669 79.9778 82.6614 79.9111C121.875 68.7111 121.054 30.9111 120.989 28.8444Z" fill="#DBBF8D"/>
</g>
</svg>
